<svg width="956" height="82" viewBox="0 0 956 82" fill="none" xmlns="http://www.w3.org/2000/svg">
<g filter="url(#filter0_d_11_2)">
<path d="M54.9 73H5V62.5L22.9 44.4C26.5 40.6667 29.4 37.5667 31.6 35.1C33.8 32.5667 35.4 30.3 36.4 28.3C37.4 26.2333 37.9 24.0333 37.9 21.7C37.9 18.8333 37.1 16.7 35.5 15.3C33.9667 13.9 31.8667 13.2 29.2 13.2C26.4667 13.2 23.8 13.8333 21.2 15.1C18.6 16.3667 15.8667 18.1667 13 20.5L4.8 10.8C6.86667 9 9.03333 7.33333 11.3 5.79999C13.6333 4.26666 16.3 3.03333 19.3 2.09999C22.3667 1.1 26.0333 0.599996 30.3 0.599996C34.9667 0.599996 38.9667 1.46666 42.3 3.2C45.7 4.86666 48.3 7.16666 50.1 10.1C51.9667 12.9667 52.9 16.2333 52.9 19.9C52.9 22.9 52.4333 25.6667 51.5 28.2C50.6333 30.7333 49.3333 33.2 47.6 35.6C45.9333 37.9333 43.8667 40.3667 41.4 42.9C38.9333 45.3667 36.1333 48.0667 33 51L23.8 59.6V60.3H54.9V73ZM93.4266 31L108.327 1.6H124.627L100.927 45.2V73H85.9266V45.7L62.2266 1.6H78.6266L93.4266 31ZM200.476 37.2C200.476 42.7333 199.776 47.7667 198.376 52.3C197.042 56.7667 194.976 60.6333 192.176 63.9C189.442 67.1667 185.909 69.6667 181.576 71.4C177.309 73.1333 172.276 74 166.476 74C160.676 74 155.609 73.1333 151.276 71.4C147.009 69.6 143.476 67.1 140.676 63.9C137.942 60.6333 135.876 56.7333 134.476 52.2C133.142 47.6667 132.476 42.6333 132.476 37.1C132.476 29.7 133.676 23.2667 136.076 17.8C138.542 12.3333 142.276 8.1 147.276 5.1C152.342 2.03333 158.776 0.499998 166.576 0.499998C174.309 0.499998 180.676 2.03333 185.676 5.1C190.676 8.1 194.376 12.3667 196.776 17.9C199.242 23.3667 200.476 29.8 200.476 37.2ZM148.376 37.2C148.376 42.2 149.009 46.5 150.276 50.1C151.542 53.7 153.509 56.4667 156.176 58.4C158.842 60.3333 162.276 61.3 166.476 61.3C170.809 61.3 174.276 60.3333 176.876 58.4C179.542 56.4667 181.476 53.7 182.676 50.1C183.942 46.5 184.576 42.2 184.576 37.2C184.576 29.6667 183.176 23.7667 180.376 19.5C177.576 15.2333 172.976 13.1 166.576 13.1C162.309 13.1 158.842 14.0667 156.176 16C153.509 17.9333 151.542 20.7 150.276 24.3C149.009 27.9 148.376 32.2 148.376 37.2ZM277.366 47.8C277.366 52.7333 276.266 57.2 274.066 61.2C271.932 65.1333 268.666 68.2667 264.266 70.6C259.932 72.8667 254.432 74 247.766 74C238.299 74 231.099 71.6 226.166 66.8C221.232 61.9333 218.766 55.5333 218.766 47.6V1.6H233.866V45.3C233.866 51.1667 235.066 55.3 237.466 57.7C239.866 60.1 243.432 61.3 248.166 61.3C251.499 61.3 254.199 60.7333 256.266 59.6C258.332 58.4667 259.832 56.7 260.766 54.3C261.766 51.9 262.266 48.8667 262.266 45.2V1.6H277.366V47.8ZM319.652 1.6C326.118 1.6 331.452 2.4 335.652 3.99999C339.852 5.53333 342.985 7.9 345.052 11.1C347.118 14.2333 348.152 18.2 348.152 23C348.152 26.2667 347.518 29.1333 346.252 31.6C345.052 34 343.418 36.0667 341.352 37.8C339.352 39.4667 337.185 40.8333 334.852 41.9L355.852 73H339.052L322.052 45.6H313.952V73H298.852V1.6H319.652ZM318.552 14H313.952V33.3H318.852C322.185 33.3 324.885 32.9333 326.952 32.2C329.018 31.4667 330.518 30.3667 331.452 28.9C332.385 27.3667 332.852 25.5333 332.852 23.4C332.852 21.1333 332.318 19.3333 331.252 18C330.252 16.6 328.685 15.6 326.552 15C324.485 14.3333 321.818 14 318.552 14ZM399.167 13.2C396.301 13.2 393.734 13.7667 391.467 14.9C389.267 16.0333 387.401 17.6667 385.867 19.8C384.334 21.8667 383.167 24.4 382.367 27.4C381.634 30.4 381.267 33.7667 381.267 37.5C381.267 42.5667 381.867 46.9 383.067 50.5C384.334 54.0333 386.301 56.7333 388.967 58.6C391.634 60.4667 395.034 61.4 399.167 61.4C402.101 61.4 405.001 61.0667 407.867 60.4C410.801 59.7333 413.967 58.8 417.367 57.6V70.3C414.234 71.5667 411.134 72.5 408.067 73.1C405.001 73.7 401.567 74 397.767 74C390.434 74 384.367 72.5 379.567 69.5C374.834 66.4333 371.334 62.1667 369.067 56.7C366.801 51.1667 365.667 44.7333 365.667 37.4C365.667 32 366.401 27.0667 367.867 22.6C369.334 18.0667 371.467 14.1667 374.267 10.9C377.134 7.63333 380.634 5.1 384.767 3.3C388.967 1.5 393.767 0.599996 399.167 0.599996C402.701 0.599996 406.234 1.06666 409.767 2C413.367 2.86666 416.801 4.06666 420.067 5.6L415.167 17.9C412.501 16.6333 409.801 15.5333 407.067 14.6C404.401 13.6667 401.767 13.2 399.167 13.2ZM457.339 1.6C463.806 1.6 469.139 2.4 473.339 3.99999C477.539 5.53333 480.672 7.9 482.739 11.1C484.806 14.2333 485.839 18.2 485.839 23C485.839 26.2667 485.206 29.1333 483.939 31.6C482.739 34 481.106 36.0667 479.039 37.8C477.039 39.4667 474.872 40.8333 472.539 41.9L493.539 73H476.739L459.739 45.6H451.639V73H436.539V1.6H457.339ZM456.239 14H451.639V33.3H456.539C459.872 33.3 462.572 32.9333 464.639 32.2C466.706 31.4667 468.206 30.3667 469.139 28.9C470.072 27.3667 470.539 25.5333 470.539 23.4C470.539 21.1333 470.006 19.3333 468.939 18C467.939 16.6 466.372 15.6 464.239 15C462.172 14.3333 459.506 14 456.239 14ZM547.655 73H506.555V1.6H547.655V14H521.655V29.7H545.855V42.1H521.655V60.5H547.655V73ZM625.712 36.6C625.712 44.6 624.178 51.3 621.112 56.7C618.045 62.1 613.578 66.1667 607.712 68.9C601.912 71.6333 594.912 73 586.712 73H566.512V1.6H588.912C596.378 1.6 602.845 2.93333 608.312 5.6C613.845 8.26667 618.112 12.2 621.112 17.4C624.178 22.5333 625.712 28.9333 625.712 36.6ZM610.012 37C610.012 31.7333 609.245 27.4 607.712 24C606.178 20.6 603.878 18.1 600.812 16.5C597.812 14.8333 594.112 14 589.712 14H581.612V60.5H588.112C595.512 60.5 601.012 58.5333 604.612 54.6C608.212 50.6667 610.012 44.8 610.012 37ZM671.235 73H638.735V64.4L647.435 60.4V14.2L638.735 10.2V1.6H671.235V10.2L662.535 14.2V60.4L671.235 64.4V73ZM714.902 73H699.802V14.2H680.402V1.6H734.302V14.2H714.902V73Z" fill="#F3EFEF" shape-rendering="crispEdges"/>
<path d="M758.124 62.557C758.124 66.6558 756.09 68.7052 752.021 68.7052C750.213 68.7052 748.736 68.1627 747.591 67.0778C746.476 65.9626 745.918 64.5009 745.918 62.6926C745.918 58.5636 748.043 56.4991 752.293 56.4991C754.011 56.4991 755.412 57.0868 756.497 58.2622C757.582 59.4075 758.124 60.8391 758.124 62.557ZM798.809 73.84C794.273 73.84 790.409 73.028 787.217 71.404C784.025 69.724 781.589 67.148 779.909 63.676C778.229 60.204 777.389 55.752 777.389 50.32C777.389 44.72 778.341 40.156 780.245 36.628C782.149 33.1 784.781 30.496 788.141 28.816C791.557 27.136 795.477 26.296 799.901 26.296C803.037 26.296 805.753 26.604 808.049 27.22C810.401 27.836 812.445 28.564 814.181 29.404L810.485 39.064C808.525 38.28 806.677 37.636 804.941 37.132C803.261 36.628 801.581 36.376 799.901 36.376C797.717 36.376 795.897 36.908 794.441 37.972C792.985 38.98 791.893 40.52 791.165 42.592C790.493 44.608 790.157 47.156 790.157 50.236C790.157 53.26 790.521 55.78 791.249 57.796C792.033 59.756 793.153 61.24 794.609 62.248C796.065 63.2 797.829 63.676 799.901 63.676C802.533 63.676 804.857 63.34 806.873 62.668C808.889 61.94 810.849 60.96 812.753 59.728V70.396C810.849 71.628 808.833 72.496 806.705 73C804.633 73.56 802.001 73.84 798.809 73.84ZM868.334 49.984C868.334 53.792 867.802 57.18 866.738 60.148C865.73 63.116 864.246 65.636 862.286 67.708C860.382 69.724 858.058 71.264 855.314 72.328C852.57 73.336 849.462 73.84 845.99 73.84C842.798 73.84 839.83 73.336 837.086 72.328C834.398 71.264 832.074 69.724 830.114 67.708C828.154 65.636 826.614 63.116 825.494 60.148C824.43 57.18 823.898 53.792 823.898 49.984C823.898 44.888 824.794 40.604 826.586 37.132C828.378 33.604 830.954 30.916 834.314 29.068C837.674 27.22 841.65 26.296 846.242 26.296C850.554 26.296 854.362 27.22 857.666 29.068C860.97 30.916 863.574 33.604 865.478 37.132C867.382 40.604 868.334 44.888 868.334 49.984ZM836.666 49.984C836.666 53.008 836.974 55.556 837.59 57.628C838.262 59.644 839.298 61.184 840.698 62.248C842.098 63.256 843.918 63.76 846.158 63.76C848.398 63.76 850.19 63.256 851.534 62.248C852.934 61.184 853.942 59.644 854.558 57.628C855.23 55.556 855.566 53.008 855.566 49.984C855.566 46.96 855.23 44.44 854.558 42.424C853.942 40.408 852.934 38.896 851.534 37.888C850.134 36.88 848.314 36.376 846.074 36.376C842.77 36.376 840.362 37.524 838.85 39.82C837.394 42.06 836.666 45.448 836.666 49.984ZM935.882 26.296C941.09 26.296 945.01 27.64 947.642 30.328C950.33 32.96 951.674 37.216 951.674 43.096V73H939.158V46.204C939.158 42.9 938.598 40.436 937.478 38.812C936.358 37.132 934.622 36.292 932.27 36.292C928.966 36.292 926.614 37.468 925.214 39.82C923.814 42.172 923.114 45.56 923.114 49.984V73H910.598V46.204C910.598 44.02 910.346 42.2 909.842 40.744C909.338 39.288 908.582 38.196 907.574 37.468C906.566 36.684 905.278 36.292 903.71 36.292C901.414 36.292 899.594 36.88 898.25 38.056C896.906 39.232 895.954 40.94 895.394 43.18C894.834 45.42 894.554 48.164 894.554 51.412V73H882.038V27.136H891.614L893.294 33.016H893.966C894.918 31.448 896.094 30.188 897.494 29.236C898.894 28.228 900.434 27.5 902.114 27.052C903.85 26.548 905.586 26.296 907.322 26.296C910.682 26.296 913.538 26.856 915.89 27.976C918.242 29.04 920.034 30.72 921.266 33.016H922.358C923.758 30.664 925.69 28.956 928.154 27.892C930.674 26.828 933.25 26.296 935.882 26.296Z" fill="white" fill-opacity="0.75" shape-rendering="crispEdges"/>
<path d="M54.9 73V74H55.9V73H54.9ZM5 73H4V74H5V73ZM5 62.5L4.28898 61.7968L4 62.089V62.5H5ZM22.9 44.4L23.6111 45.1032L23.6198 45.0941L22.9 44.4ZM31.6 35.1L32.3464 35.7657L32.355 35.7557L31.6 35.1ZM36.4 28.3L37.2945 28.7472L37.3002 28.7356L36.4 28.3ZM35.5 15.3L34.8257 16.0385L34.8335 16.0456L34.8415 16.0526L35.5 15.3ZM21.2 15.1L20.762 14.201L20.762 14.201L21.2 15.1ZM13 20.5L12.2363 21.1456L12.87 21.8952L13.6313 21.2756L13 20.5ZM4.8 10.8L4.14322 10.0459L3.40018 10.6931L4.03632 11.4456L4.8 10.8ZM11.3 5.79999L10.7508 4.96421L10.7397 4.97171L11.3 5.79999ZM19.3 2.09999L19.5971 3.05494L19.61 3.05072L19.3 2.09999ZM42.3 3.2L41.8386 4.08722L41.8492 4.09269L41.8598 4.09792L42.3 3.2ZM50.1 10.1L49.2477 10.623L49.2547 10.6344L49.262 10.6457L50.1 10.1ZM51.5 28.2L50.5617 27.8543L50.5576 27.8653L50.5538 27.8763L51.5 28.2ZM47.6 35.6L46.7893 35.0145L46.7863 35.0188L47.6 35.6ZM41.4 42.9L42.1072 43.6072L42.1165 43.5976L41.4 42.9ZM33 51L33.6829 51.7305L33.6834 51.73L33 51ZM23.8 59.6L23.1171 58.8695L22.8 59.1659V59.6H23.8ZM23.8 60.3H22.8V61.3H23.8V60.3ZM54.9 60.3H55.9V59.3H54.9V60.3ZM54.9 72H5V74H54.9V72ZM6 73V62.5H4V73H6ZM5.71102 63.2032L23.611 45.1032L22.189 43.6968L4.28898 61.7968L5.71102 63.2032ZM23.6198 45.0941C27.2244 41.3561 30.1343 38.2458 32.3463 35.7656L30.8537 34.4344C28.6657 36.8876 25.7756 39.9773 22.1802 43.7059L23.6198 45.0941ZM32.355 35.7557C34.5855 33.1872 36.2432 30.8496 37.2944 28.7472L35.5056 27.8528C34.5568 29.7504 33.0145 31.9461 30.845 34.4443L32.355 35.7557ZM37.3002 28.7356C38.367 26.5308 38.9 24.1816 38.9 21.7H36.9C36.9 23.885 36.433 25.9358 35.4998 27.8644L37.3002 28.7356ZM38.9 21.7C38.9 18.6506 38.044 16.1973 36.1585 14.5474L34.8415 16.0526C36.156 17.2027 36.9 19.0161 36.9 21.7H38.9ZM36.1743 14.5615C34.4089 12.9497 32.0429 12.2 29.2 12.2V14.2C31.6904 14.2 33.5244 14.8503 34.8257 16.0385L36.1743 14.5615ZM29.2 12.2C26.3061 12.2 23.4903 12.8718 20.762 14.201L21.638 15.999C24.1097 14.7948 26.6272 14.2 29.2 14.2V12.2ZM20.762 14.201C18.0771 15.509 15.2793 17.3553 12.3687 19.7244L13.6313 21.2756C16.454 18.978 19.1229 17.2243 21.638 15.999L20.762 14.201ZM13.7637 19.8544L5.56369 10.1544L4.03632 11.4456L12.2363 21.1456L13.7637 19.8544ZM5.45678 11.5541C7.49287 9.78071 9.62733 8.13883 11.8603 6.62828L10.7397 4.97171C8.43934 6.52783 6.24046 8.21928 4.14322 10.0459L5.45678 11.5541ZM11.8492 6.6357C14.0954 5.15962 16.6753 3.96385 19.5971 3.05485L19.0029 1.14514C15.9247 2.1028 13.1713 3.3737 10.7508 4.96429L11.8492 6.6357ZM19.61 3.05072C22.5502 2.09197 26.1067 1.6 30.3 1.6V-0.400004C25.9599 -0.400004 22.1831 0.108025 18.99 1.14926L19.61 3.05072ZM30.3 1.6C34.8442 1.6 38.6782 2.44379 41.8386 4.08722L42.7614 2.31278C39.2551 0.489541 35.0891 -0.400004 30.3 -0.400004V1.6ZM41.8598 4.09792C45.1074 5.68985 47.5566 7.86716 49.2477 10.623L50.9523 9.57698C49.0434 6.46617 46.2926 4.04348 42.7402 2.30208L41.8598 4.09792ZM49.262 10.6457C51.0153 13.3382 51.9 16.4125 51.9 19.9H53.9C53.9 16.0542 52.9181 12.5951 50.938 9.55433L49.262 10.6457ZM51.9 19.9C51.9 22.7951 51.4499 25.4433 50.5617 27.8543L52.4383 28.5457C53.4167 25.8901 53.9 23.0049 53.9 19.9H51.9ZM50.5538 27.8763C49.7223 30.3069 48.4709 32.6862 46.7893 35.0145L48.4107 36.1855C50.1958 33.7138 51.5443 31.1598 52.4462 28.5237L50.5538 27.8763ZM46.7863 35.0188C45.1549 37.3027 43.1227 39.6973 40.6835 42.2024L42.1165 43.5976C44.6107 41.036 46.7118 38.564 48.4137 36.1812L46.7863 35.0188ZM40.6929 42.1929C38.2355 44.6503 35.4436 47.3425 32.3166 50.27L33.6834 51.73C36.823 48.7908 39.6312 46.0831 42.1071 43.6071L40.6929 42.1929ZM32.3171 50.2695L23.1171 58.8695L24.4829 60.3305L33.6829 51.7305L32.3171 50.2695ZM22.8 59.6V60.3H24.8V59.6H22.8ZM23.8 61.3H54.9V59.3H23.8V61.3ZM53.9 60.3V73H55.9V60.3H53.9ZM93.4266 31L92.5334 31.4496L93.4236 33.218L94.3185 31.4521L93.4266 31ZM108.327 1.6V0.599995H107.712L107.435 1.14793L108.327 1.6ZM124.627 1.6L125.505 2.07758L126.308 0.599995H124.627V1.6ZM100.927 45.2L100.048 44.7224L99.9266 44.9458V45.2H100.927ZM100.927 73V74H101.927V73H100.927ZM85.9266 73H84.9266V74H85.9266V73ZM85.9266 45.7H86.9266V45.4483L86.8074 45.2266L85.9266 45.7ZM62.2266 1.6V0.599995H60.5539L61.3457 2.07338L62.2266 1.6ZM78.6266 1.6L79.5198 1.15035L79.2427 0.599995H78.6266V1.6ZM94.3185 31.4521L109.219 2.05206L107.435 1.14793L92.5346 30.5479L94.3185 31.4521ZM108.327 2.6H124.627V0.599995H108.327V2.6ZM123.748 1.12241L100.048 44.7224L101.805 45.6776L125.505 2.07758L123.748 1.12241ZM99.9266 45.2V73H101.927V45.2H99.9266ZM100.927 72H85.9266V74H100.927V72ZM86.9266 73V45.7H84.9266V73H86.9266ZM86.8074 45.2266L63.1074 1.12661L61.3457 2.07338L85.0457 46.1734L86.8074 45.2266ZM62.2266 2.6H78.6266V0.599995H62.2266V2.6ZM77.7334 2.04964L92.5334 31.4496L94.3198 30.5504L79.5198 1.15035L77.7334 2.04964ZM198.376 52.3L197.42 52.0049L197.418 52.014L198.376 52.3ZM192.176 63.9L191.416 63.2492L191.409 63.2583L192.176 63.9ZM181.576 71.4L181.204 70.4715L181.199 70.4735L181.576 71.4ZM151.276 71.4L150.887 72.3214L150.896 72.325L150.904 72.3285L151.276 71.4ZM140.676 63.9L139.909 64.5417L139.916 64.5502L139.923 64.5585L140.676 63.9ZM134.476 52.2L133.516 52.4822L133.52 52.4951L134.476 52.2ZM136.076 17.8L135.164 17.3887L135.16 17.398L136.076 17.8ZM147.276 5.1L147.79 5.9575L147.794 5.9555L147.276 5.1ZM185.676 5.1L185.153 5.95248L185.161 5.95749L185.676 5.1ZM196.776 17.9L195.858 18.2979L195.861 18.3046L195.864 18.3113L196.776 17.9ZM156.176 58.4L156.763 57.5904L156.763 57.5904L156.176 58.4ZM176.876 58.4L176.289 57.5903L176.279 57.5975L176.876 58.4ZM182.676 50.1L181.732 49.7681L181.73 49.7759L181.727 49.7838L182.676 50.1ZM180.376 19.5L179.54 20.0487L179.54 20.0487L180.376 19.5ZM156.176 16L155.589 15.1904L155.589 15.1904L156.176 16ZM150.276 24.3L149.332 23.9681L150.276 24.3ZM199.476 37.2C199.476 42.6495 198.786 47.5815 197.42 52.0049L199.331 52.5951C200.765 47.9518 201.476 42.8172 201.476 37.2H199.476ZM197.418 52.014C196.121 56.3578 194.118 60.0975 191.417 63.2492L192.935 64.5508C195.834 61.1692 197.964 57.1755 199.334 52.586L197.418 52.014ZM191.409 63.2583C188.792 66.3863 185.399 68.7936 181.204 70.4715L181.947 72.3285C186.419 70.5397 190.093 67.9471 192.943 64.5417L191.409 63.2583ZM181.199 70.4735C177.079 72.1475 172.179 73 166.476 73V75C172.373 75 177.539 74.1192 181.952 72.3265L181.199 70.4735ZM166.476 73C160.773 73 155.838 72.1477 151.647 70.4715L150.904 72.3285C155.381 74.119 160.578 75 166.476 75V73ZM151.664 70.4786C147.525 68.7322 144.12 66.3175 141.428 63.2415L139.923 64.5585C142.832 67.8825 146.493 70.4678 150.887 72.3214L151.664 70.4786ZM141.443 63.2583C138.804 60.1045 136.797 56.3258 135.431 51.9049L133.52 52.4951C134.955 57.1409 137.081 61.1622 139.909 64.5417L141.443 63.2583ZM135.435 51.9178C134.133 47.4902 133.476 42.5537 133.476 37.1H131.476C131.476 42.713 132.152 47.8431 133.516 52.4822L135.435 51.9178ZM133.476 37.1C133.476 29.8062 134.659 23.5154 136.991 18.202L135.16 17.398C132.693 23.0179 131.476 29.5938 131.476 37.1H133.476ZM136.987 18.2113C139.373 12.9247 142.97 8.84953 147.79 5.95749L146.761 4.24251C141.581 7.35047 137.712 11.742 135.164 17.3887L136.987 18.2113ZM147.794 5.9555C152.662 3.00884 158.902 1.5 166.576 1.5V-0.500002C158.65 -0.500002 152.023 1.05783 146.758 4.2445L147.794 5.9555ZM166.576 1.5C174.182 1.5 180.353 3.00839 185.153 5.95244L186.199 4.24756C180.999 1.05827 174.436 -0.500002 166.576 -0.500002V1.5ZM185.161 5.95749C189.976 8.84623 193.538 12.949 195.858 18.2979L197.693 17.5021C195.213 11.7843 191.376 7.35377 186.19 4.24251L185.161 5.95749ZM195.864 18.3113C198.261 23.6222 199.476 29.9095 199.476 37.2H201.476C201.476 29.6905 200.224 23.1112 197.687 17.4887L195.864 18.3113ZM147.376 37.2C147.376 42.28 148.019 46.698 149.332 50.4319L151.219 49.7681C150 46.302 149.376 42.12 149.376 37.2H147.376ZM149.332 50.4319C150.656 54.1923 152.733 57.1388 155.589 59.2096L156.763 57.5904C154.286 55.7945 152.429 53.2077 151.219 49.7681L149.332 50.4319ZM155.589 59.2096C158.468 61.297 162.123 62.3 166.476 62.3V60.3C162.428 60.3 159.217 59.3697 156.763 57.5904L155.589 59.2096ZM166.476 62.3C170.952 62.3 174.65 61.3012 177.472 59.2025L176.279 57.5975C173.902 59.3655 170.666 60.3 166.476 60.3V62.3ZM177.463 59.2096C180.323 57.1356 182.369 54.1832 183.624 50.4162L181.727 49.7838C180.583 53.2168 178.762 55.7977 176.289 57.5904L177.463 59.2096ZM183.619 50.4319C184.933 46.698 185.576 42.28 185.576 37.2H183.576C183.576 42.12 182.952 46.302 181.732 49.7681L183.619 50.4319ZM185.576 37.2C185.576 29.5592 184.158 23.4413 181.212 18.9513L179.54 20.0487C182.193 24.092 183.576 29.7741 183.576 37.2H185.576ZM181.212 18.9513C178.179 14.3304 173.215 12.1 166.576 12.1V14.1C172.736 14.1 176.972 16.1363 179.54 20.0487L181.212 18.9513ZM166.576 12.1C162.16 12.1 158.47 13.1012 155.589 15.1904L156.763 16.8096C159.214 15.0321 162.458 14.1 166.576 14.1V12.1ZM155.589 15.1904C152.733 17.2612 150.656 20.2077 149.332 23.9681L151.219 24.6319C152.429 21.1923 154.286 18.6055 156.763 16.8096L155.589 15.1904ZM149.332 23.9681C148.019 27.702 147.376 32.12 147.376 37.2H149.376C149.376 32.28 150 28.098 151.219 24.6319L149.332 23.9681ZM274.066 61.2L273.189 60.7181L273.187 60.7232L274.066 61.2ZM264.266 70.6L264.729 71.4861L264.734 71.4835L264.266 70.6ZM226.166 66.8L225.463 67.5119L225.468 67.5167L226.166 66.8ZM218.766 1.6V0.599995H217.766V1.6H218.766ZM233.866 1.6H234.866V0.599995H233.866V1.6ZM237.466 57.7L236.759 58.4071L236.759 58.4071L237.466 57.7ZM256.266 59.6L255.785 58.7232L255.785 58.7232L256.266 59.6ZM260.766 54.3L259.843 53.9154L259.838 53.9264L259.834 53.9376L260.766 54.3ZM262.266 1.6V0.599995H261.266V1.6H262.266ZM277.366 1.6H278.366V0.599995H277.366V1.6ZM276.366 47.8C276.366 52.5788 275.302 56.8775 273.189 60.7181L274.942 61.6819C277.23 57.5225 278.366 52.8879 278.366 47.8H276.366ZM273.187 60.7232C271.158 64.4643 268.044 67.4646 263.797 69.7165L264.734 71.4835C269.288 69.0687 272.707 65.8023 274.945 61.6768L273.187 60.7232ZM263.802 69.7139C259.654 71.8836 254.327 73 247.766 73V75C254.538 75 260.21 73.8498 264.729 71.4861L263.802 69.7139ZM247.766 73C238.46 73 231.549 70.6424 226.863 66.0833L225.468 67.5167C230.649 72.5576 238.138 75 247.766 75V73ZM226.868 66.0881C222.153 61.437 219.766 55.3079 219.766 47.6H217.766C217.766 55.7587 220.311 62.4296 225.463 67.5119L226.868 66.0881ZM219.766 47.6V1.6H217.766V47.6H219.766ZM218.766 2.6H233.866V0.599995H218.766V2.6ZM232.866 1.6V45.3H234.866V1.6H232.866ZM232.866 45.3C232.866 51.2521 234.074 55.7223 236.759 58.4071L238.173 56.9929C236.058 54.8777 234.866 51.0812 234.866 45.3H232.866ZM236.759 58.4071C239.41 61.0584 243.273 62.3 248.166 62.3V60.3C243.591 60.3 240.321 59.1416 238.173 56.9929L236.759 58.4071ZM248.166 62.3C251.601 62.3 254.484 61.7175 256.746 60.4768L255.785 58.7232C253.914 59.7491 251.397 60.3 248.166 60.3V62.3ZM256.746 60.4768C259.039 59.2197 260.688 57.2599 261.698 54.6624L259.834 53.9376C258.977 56.1401 257.626 57.7137 255.785 58.7232L256.746 60.4768ZM261.689 54.6846C262.756 52.1237 263.266 48.9485 263.266 45.2H261.266C261.266 48.7848 260.775 51.6763 259.843 53.9154L261.689 54.6846ZM263.266 45.2V1.6H261.266V45.2H263.266ZM262.266 2.6H277.366V0.599995H262.266V2.6ZM276.366 1.6V47.8H278.366V1.6H276.366ZM335.652 3.99999L335.296 4.93457L335.309 4.93935L335.652 3.99999ZM345.052 11.1L344.211 11.6425L344.217 11.6506L345.052 11.1ZM346.252 31.6L345.362 31.1432L345.357 31.1528L346.252 31.6ZM341.352 37.8L341.992 38.5682L341.994 38.5662L341.352 37.8ZM334.852 41.9L334.436 40.9905L333.362 41.4813L334.023 42.4596L334.852 41.9ZM355.852 73V74H357.733L356.68 72.4404L355.852 73ZM339.052 73L338.202 73.5272L338.495 74H339.052V73ZM322.052 45.6L322.901 45.0728L322.608 44.6H322.052V45.6ZM313.952 45.6V44.6H312.952V45.6H313.952ZM313.952 73V74H314.952V73H313.952ZM298.852 73H297.852V74H298.852V73ZM298.852 1.6V0.599995H297.852V1.6H298.852ZM313.952 14V13H312.952V14H313.952ZM313.952 33.3H312.952V34.3H313.952V33.3ZM326.952 32.2L327.286 33.1424L327.286 33.1424L326.952 32.2ZM331.452 28.9L332.295 29.4369L332.301 29.4285L332.306 29.4199L331.452 28.9ZM331.252 18L330.438 18.5812L330.454 18.6034L330.471 18.6247L331.252 18ZM326.552 15L326.245 15.9517L326.263 15.9575L326.281 15.9626L326.552 15ZM319.652 2.6C326.045 2.6 331.247 3.39233 335.296 4.93448L336.008 3.06551C331.656 1.40766 326.191 0.599995 319.652 0.599995V2.6ZM335.309 4.93935C339.341 6.41148 342.283 8.65577 344.212 11.6425L345.892 10.5575C343.687 7.14422 340.362 4.65518 335.995 3.06064L335.309 4.93935ZM344.217 11.6506C346.149 14.5805 347.152 18.3415 347.152 23H349.152C349.152 18.0584 348.087 13.8862 345.886 10.5494L344.217 11.6506ZM347.152 23C347.152 26.136 346.544 28.841 345.362 31.1432L347.141 32.0568C348.492 29.4257 349.152 26.3973 349.152 23H347.152ZM345.357 31.1528C344.219 33.4297 342.671 35.388 340.709 37.0338L341.994 38.5662C344.165 36.7454 345.884 34.5703 347.146 32.0472L345.357 31.1528ZM340.711 37.0318C338.779 38.6425 336.687 39.9613 334.436 40.9905L335.267 42.8095C337.683 41.7053 339.925 40.2909 341.992 38.5682L340.711 37.0318ZM334.023 42.4596L355.023 73.5596L356.68 72.4404L335.68 41.3404L334.023 42.4596ZM355.852 72H339.052V74H355.852V72ZM339.901 72.4728L322.901 45.0728L321.202 46.1272L338.202 73.5272L339.901 72.4728ZM322.052 44.6H313.952V46.6H322.052V44.6ZM312.952 45.6V73H314.952V45.6H312.952ZM313.952 72H298.852V74H313.952V72ZM299.852 73V1.6H297.852V73H299.852ZM298.852 2.6H319.652V0.599995H298.852V2.6ZM318.552 13H313.952V15H318.552V13ZM312.952 14V33.3H314.952V14H312.952ZM313.952 34.3H318.852V32.3H313.952V34.3ZM318.852 34.3C322.246 34.3 325.071 33.9283 327.286 33.1424L326.617 31.2576C324.698 31.9384 322.124 32.3 318.852 32.3V34.3ZM327.286 33.1424C329.507 32.3543 331.214 31.1363 332.295 29.4369L330.608 28.3631C329.823 29.597 328.529 30.579 326.617 31.2576L327.286 33.1424ZM332.306 29.4199C333.351 27.7026 333.852 25.6819 333.852 23.4H331.852C331.852 25.3848 331.419 27.0307 330.597 28.3801L332.306 29.4199ZM333.852 23.4C333.852 20.9808 333.281 18.9365 332.032 17.3753L330.471 18.6247C331.355 19.7301 331.852 21.2859 331.852 23.4H333.852ZM332.065 17.4188C330.899 15.7858 329.111 14.681 326.822 14.0373L326.281 15.9626C328.259 16.519 329.604 17.4141 330.438 18.5812L332.065 17.4188ZM326.859 14.0483C324.656 13.3378 321.875 13 318.552 13V15C321.761 15 324.314 15.3288 326.245 15.9517L326.859 14.0483ZM391.467 14.9L391.02 14.0055L391.009 14.011L391.467 14.9ZM385.867 19.8L386.67 20.3958L386.675 20.3898L386.679 20.3836L385.867 19.8ZM382.367 27.4L381.401 27.1423L381.398 27.1524L381.396 27.1625L382.367 27.4ZM383.067 50.5L382.119 50.8162L382.122 50.8269L382.126 50.8375L383.067 50.5ZM388.967 58.6L388.394 59.4192L388.394 59.4192L388.967 58.6ZM407.867 60.4L407.646 59.4249L407.641 59.426L407.867 60.4ZM417.367 57.6H418.367V56.1866L417.034 56.657L417.367 57.6ZM417.367 70.3L417.742 71.2271L418.367 70.9744V70.3H417.367ZM408.067 73.1L408.259 74.0814L408.259 74.0814L408.067 73.1ZM379.567 69.5L379.023 70.3393L379.03 70.3437L379.037 70.348L379.567 69.5ZM369.067 56.7L368.142 57.0791L368.143 57.083L369.067 56.7ZM367.867 22.6L368.817 22.912L368.819 22.9078L367.867 22.6ZM374.267 10.9L373.516 10.2404L373.508 10.2492L374.267 10.9ZM384.767 3.3L384.373 2.38084L384.368 2.38316L384.767 3.3ZM409.767 2L409.512 2.96683L409.522 2.96964L409.533 2.97222L409.767 2ZM420.067 5.6L420.996 5.97009L421.345 5.09501L420.492 4.69476L420.067 5.6ZM415.167 17.9L414.738 18.8033L415.701 19.2609L416.096 18.2701L415.167 17.9ZM407.067 14.6L406.737 15.5439L406.744 15.5463L407.067 14.6ZM399.167 12.2C396.166 12.2 393.443 12.7942 391.02 14.0056L391.914 15.7944C394.025 14.7391 396.435 14.2 399.167 14.2V12.2ZM391.009 14.011C388.66 15.2212 386.675 16.9628 385.055 19.2164L386.679 20.3836C388.126 18.3705 389.874 16.8455 391.925 15.789L391.009 14.011ZM385.064 19.2042C383.442 21.3908 382.227 24.0449 381.401 27.1423L383.333 27.6577C384.107 24.7551 385.226 22.3425 386.67 20.3958L385.064 19.2042ZM381.396 27.1625C380.64 30.2544 380.267 33.7027 380.267 37.5H382.267C382.267 33.8307 382.628 30.5456 383.339 27.6374L381.396 27.1625ZM380.267 37.5C380.267 42.6404 380.875 47.0866 382.119 50.8162L384.016 50.1838C382.859 46.7134 382.267 42.4929 382.267 37.5H380.267ZM382.126 50.8375C383.451 54.5347 385.533 57.4164 388.394 59.4192L389.541 57.7808C387.068 56.0503 385.216 53.5319 384.009 50.1625L382.126 50.8375ZM388.394 59.4192C391.269 61.4318 394.884 62.4 399.167 62.4V60.4C395.184 60.4 391.999 59.5015 389.541 57.7808L388.394 59.4192ZM399.167 62.4C402.177 62.4 405.153 62.0579 408.094 61.374L407.641 59.426C404.848 60.0754 402.024 60.4 399.167 60.4V62.4ZM408.089 61.3751C411.066 60.6984 414.27 59.7534 417.7 58.543L417.034 56.657C413.664 57.8466 410.535 58.7682 407.646 59.4249L408.089 61.3751ZM416.367 57.6V70.3H418.367V57.6H416.367ZM416.992 69.3729C413.913 70.6176 410.874 71.5318 407.875 72.1186L408.259 74.0814C411.393 73.4682 414.554 72.5157 417.742 71.2271L416.992 69.3729ZM407.875 72.1186C404.884 72.7039 401.516 73 397.767 73V75C401.618 75 405.117 74.6961 408.259 74.0814L407.875 72.1186ZM397.767 73C390.567 73 384.698 71.5273 380.097 68.652L379.037 70.348C384.037 73.4727 390.301 75 397.767 75V73ZM380.111 68.6607C375.556 65.7098 372.184 61.6064 369.991 56.317L368.143 57.083C370.484 62.727 374.112 67.1569 379.023 70.3393L380.111 68.6607ZM369.993 56.3209C367.785 50.9318 366.667 44.6319 366.667 37.4H364.667C364.667 44.8348 365.816 51.4015 368.142 57.0791L369.993 56.3209ZM366.667 37.4C366.667 32.0905 367.388 27.2642 368.817 22.912L366.917 22.288C365.413 26.8691 364.667 31.9095 364.667 37.4H366.667ZM368.819 22.9078C370.249 18.4868 372.321 14.7067 375.026 11.5508L373.508 10.2492C370.613 13.6266 368.419 17.6465 366.916 22.2922L368.819 22.9078ZM375.019 11.5596C377.785 8.40772 381.163 5.96032 385.166 4.21683L384.368 2.38316C380.105 4.23968 376.483 6.85894 373.516 10.2404L375.019 11.5596ZM385.161 4.21914C389.216 2.48127 393.878 1.6 399.167 1.6V-0.400004C393.656 -0.400004 388.718 0.518719 384.373 2.38085L385.161 4.21914ZM399.167 1.6C402.611 1.6 406.059 2.05476 409.512 2.96683L410.023 1.03316C406.409 0.0785675 402.79 -0.400004 399.167 -0.400004V1.6ZM409.533 2.97222C413.069 3.82348 416.438 5.00136 419.642 6.50523L420.492 4.69476C417.163 3.13196 413.665 1.90985 410.001 1.02777L409.533 2.97222ZM419.138 5.22991L414.238 17.5299L416.096 18.2701L420.996 5.97009L419.138 5.22991ZM415.596 16.9967C412.896 15.714 410.161 14.5996 407.39 13.6536L406.744 15.5463C409.44 16.4671 412.105 17.5526 414.738 18.8033L415.596 16.9967ZM407.398 13.6561C404.634 12.6889 401.889 12.2 399.167 12.2V14.2C401.645 14.2 404.167 14.6445 406.737 15.5439L407.398 13.6561ZM473.339 3.99999L472.983 4.93457L472.996 4.93935L473.339 3.99999ZM482.739 11.1L481.899 11.6425L481.904 11.6506L482.739 11.1ZM483.939 31.6L483.049 31.1432L483.045 31.1528L483.939 31.6ZM479.039 37.8L479.679 38.5682L479.682 38.5662L479.039 37.8ZM472.539 41.9L472.123 40.9905L471.05 41.4813L471.71 42.4596L472.539 41.9ZM493.539 73V74H495.421L494.368 72.4404L493.539 73ZM476.739 73L475.889 73.5272L476.183 74H476.739V73ZM459.739 45.6L460.589 45.0728L460.295 44.6H459.739V45.6ZM451.639 45.6V44.6H450.639V45.6H451.639ZM451.639 73V74H452.639V73H451.639ZM436.539 73H435.539V74H436.539V73ZM436.539 1.6V0.599995H435.539V1.6H436.539ZM451.639 14V13H450.639V14H451.639ZM451.639 33.3H450.639V34.3H451.639V33.3ZM464.639 32.2L464.973 33.1424L464.973 33.1424L464.639 32.2ZM469.139 28.9L469.983 29.4369L469.988 29.4285L469.993 29.4199L469.139 28.9ZM468.939 18L468.125 18.5812L468.141 18.6034L468.158 18.6247L468.939 18ZM464.239 15L463.932 15.9517L463.95 15.9575L463.968 15.9626L464.239 15ZM457.339 2.6C463.733 2.6 468.935 3.39233 472.983 4.93448L473.695 3.06551C469.343 1.40766 463.878 0.599995 457.339 0.599995V2.6ZM472.996 4.93935C477.028 6.41148 479.97 8.65577 481.899 11.6425L483.579 10.5575C481.375 7.14422 478.05 4.65518 473.682 3.06064L472.996 4.93935ZM481.904 11.6506C483.837 14.5805 484.839 18.3415 484.839 23H486.839C486.839 18.0584 485.775 13.8862 483.574 10.5494L481.904 11.6506ZM484.839 23C484.839 26.136 484.232 28.841 483.049 31.1432L484.829 32.0568C486.18 29.4257 486.839 26.3973 486.839 23H484.839ZM483.045 31.1528C481.906 33.4297 480.359 35.388 478.396 37.0338L479.682 38.5662C481.853 36.7454 483.572 34.5703 484.833 32.0472L483.045 31.1528ZM478.399 37.0318C476.466 38.6425 474.375 39.9613 472.123 40.9905L472.955 42.8095C475.37 41.7053 477.612 40.2909 479.679 38.5682L478.399 37.0318ZM471.71 42.4596L492.71 73.5596L494.368 72.4404L473.368 41.3404L471.71 42.4596ZM493.539 72H476.739V74H493.539V72ZM477.589 72.4728L460.589 45.0728L458.889 46.1272L475.889 73.5272L477.589 72.4728ZM459.739 44.6H451.639V46.6H459.739V44.6ZM450.639 45.6V73H452.639V45.6H450.639ZM451.639 72H436.539V74H451.639V72ZM437.539 73V1.6H435.539V73H437.539ZM436.539 2.6H457.339V0.599995H436.539V2.6ZM456.239 13H451.639V15H456.239V13ZM450.639 14V33.3H452.639V14H450.639ZM451.639 34.3H456.539V32.3H451.639V34.3ZM456.539 34.3C459.933 34.3 462.759 33.9283 464.973 33.1424L464.305 31.2576C462.386 31.9384 459.811 32.3 456.539 32.3V34.3ZM464.973 33.1424C467.194 32.3543 468.901 31.1363 469.983 29.4369L468.295 28.3631C467.51 29.597 466.217 30.579 464.305 31.2576L464.973 33.1424ZM469.993 29.4199C471.039 27.7026 471.539 25.6819 471.539 23.4H469.539C469.539 25.3848 469.106 27.0307 468.285 28.3801L469.993 29.4199ZM471.539 23.4C471.539 20.9808 470.969 18.9365 469.72 17.3753L468.158 18.6247C469.043 19.7301 469.539 21.2859 469.539 23.4H471.539ZM469.753 17.4188C468.586 15.7858 466.798 14.681 464.51 14.0373L463.968 15.9626C465.946 16.519 467.292 17.4141 468.125 18.5812L469.753 17.4188ZM464.546 14.0483C462.344 13.3378 459.563 13 456.239 13V15C459.449 15 462.001 15.3288 463.932 15.9517L464.546 14.0483ZM547.655 73V74H548.655V73H547.655ZM506.555 73H505.555V74H506.555V73ZM506.555 1.6V0.599995H505.555V1.6H506.555ZM547.655 1.6H548.655V0.599995H547.655V1.6ZM547.655 14V15H548.655V14H547.655ZM521.655 14V13H520.655V14H521.655ZM521.655 29.7H520.655V30.7H521.655V29.7ZM545.855 29.7H546.855V28.7H545.855V29.7ZM545.855 42.1V43.1H546.855V42.1H545.855ZM521.655 42.1V41.1H520.655V42.1H521.655ZM521.655 60.5H520.655V61.5H521.655V60.5ZM547.655 60.5H548.655V59.5H547.655V60.5ZM547.655 72H506.555V74H547.655V72ZM507.555 73V1.6H505.555V73H507.555ZM506.555 2.6H547.655V0.599995H506.555V2.6ZM546.655 1.6V14H548.655V1.6H546.655ZM547.655 13H521.655V15H547.655V13ZM520.655 14V29.7H522.655V14H520.655ZM521.655 30.7H545.855V28.7H521.655V30.7ZM544.855 29.7V42.1H546.855V29.7H544.855ZM545.855 41.1H521.655V43.1H545.855V41.1ZM520.655 42.1V60.5H522.655V42.1H520.655ZM521.655 61.5H547.655V59.5H521.655V61.5ZM546.655 60.5V73H548.655V60.5H546.655ZM621.112 56.7L621.981 57.1938L621.981 57.1938L621.112 56.7ZM607.712 68.9L607.289 67.9935L607.285 67.9954L607.712 68.9ZM566.512 73H565.512V74H566.512V73ZM566.512 1.6V0.599995H565.512V1.6H566.512ZM608.312 5.6L607.873 6.49878L607.878 6.50084L608.312 5.6ZM621.112 17.4L620.246 17.8997L620.249 17.9063L620.253 17.9128L621.112 17.4ZM607.712 24L608.623 23.5889L607.712 24ZM600.812 16.5L600.326 17.3742L600.338 17.3805L600.349 17.3866L600.812 16.5ZM581.612 14V13H580.612V14H581.612ZM581.612 60.5H580.612V61.5H581.612V60.5ZM604.612 54.6L603.874 53.9248L603.874 53.9248L604.612 54.6ZM624.712 36.6C624.712 44.4756 623.202 50.9941 620.242 56.2062L621.981 57.1938C625.155 51.6059 626.712 44.7244 626.712 36.6H624.712ZM620.242 56.2062C617.283 61.4176 612.976 65.344 607.289 67.9936L608.134 69.8064C614.181 66.9893 618.808 62.7824 621.981 57.1938L620.242 56.2062ZM607.285 67.9954C601.651 70.6509 594.804 72 586.712 72V74C595.019 74 602.173 72.6157 608.138 69.8046L607.285 67.9954ZM586.712 72H566.512V74H586.712V72ZM567.512 73V1.6H565.512V73H567.512ZM566.512 2.6H588.912V0.599995H566.512V2.6ZM588.912 2.6C596.26 2.6 602.571 3.91214 607.873 6.49877L608.75 4.70123C603.119 1.95452 596.496 0.599995 588.912 0.599995V2.6ZM607.878 6.50084C613.234 9.08241 617.348 12.878 620.246 17.8997L621.978 16.9003C618.875 11.5219 614.456 7.45092 608.746 4.69915L607.878 6.50084ZM620.253 17.9128C623.205 22.8532 624.712 29.0639 624.712 36.6H626.712C626.712 28.8028 625.152 22.2135 621.97 16.8871L620.253 17.9128ZM611.012 37C611.012 31.6459 610.234 27.1599 608.623 23.5889L606.8 24.4111C608.256 27.6401 609.012 31.8207 609.012 37H611.012ZM608.623 23.5889C607.006 20.0016 604.556 17.3254 601.274 15.6134L600.349 17.3866C603.201 18.8746 605.351 21.1984 606.8 24.4111L608.623 23.5889ZM601.297 15.6258C598.113 13.8565 594.235 13 589.712 13V15C593.989 15 597.511 15.8101 600.326 17.3742L601.297 15.6258ZM589.712 13H581.612V15H589.712V13ZM580.612 14V60.5H582.612V14H580.612ZM581.612 61.5H588.112V59.5H581.612V61.5ZM588.112 61.5C595.68 61.5 601.495 59.4859 605.349 55.2752L603.874 53.9248C600.528 57.5808 595.344 59.5 588.112 59.5V61.5ZM605.349 55.2752C609.182 51.0878 611.012 44.936 611.012 37H609.012C609.012 44.664 607.242 50.2455 603.874 53.9248L605.349 55.2752ZM671.235 73V74H672.235V73H671.235ZM638.735 73H637.735V74H638.735V73ZM638.735 64.4L638.317 63.4914L637.735 63.7591V64.4H638.735ZM647.435 60.4L647.853 61.3086L648.435 61.0409V60.4H647.435ZM647.435 14.2H648.435V13.5591L647.853 13.2914L647.435 14.2ZM638.735 10.2H637.735V10.8409L638.317 11.1086L638.735 10.2ZM638.735 1.6V0.599995H637.735V1.6H638.735ZM671.235 1.6H672.235V0.599995H671.235V1.6ZM671.235 10.2L671.653 11.1086L672.235 10.8409V10.2H671.235ZM662.535 14.2L662.117 13.2914L661.535 13.5591V14.2H662.535ZM662.535 60.4H661.535V61.0409L662.117 61.3086L662.535 60.4ZM671.235 64.4H672.235V63.7591L671.653 63.4914L671.235 64.4ZM671.235 72H638.735V74H671.235V72ZM639.735 73V64.4H637.735V73H639.735ZM639.153 65.3086L647.853 61.3086L647.017 59.4914L638.317 63.4914L639.153 65.3086ZM648.435 60.4V14.2H646.435V60.4H648.435ZM647.853 13.2914L639.153 9.29143L638.317 11.1086L647.017 15.1086L647.853 13.2914ZM639.735 10.2V1.6H637.735V10.2H639.735ZM638.735 2.6H671.235V0.599995H638.735V2.6ZM670.235 1.6V10.2H672.235V1.6H670.235ZM670.817 9.29143L662.117 13.2914L662.953 15.1086L671.653 11.1086L670.817 9.29143ZM661.535 14.2V60.4H663.535V14.2H661.535ZM662.117 61.3086L670.817 65.3086L671.653 63.4914L662.953 59.4914L662.117 61.3086ZM670.235 64.4V73H672.235V64.4H670.235ZM714.902 73V74H715.902V73H714.902ZM699.802 73H698.802V74H699.802V73ZM699.802 14.2H700.802V13.2H699.802V14.2ZM680.402 14.2H679.402V15.2H680.402V14.2ZM680.402 1.6V0.599995H679.402V1.6H680.402ZM734.302 1.6H735.302V0.599995H734.302V1.6ZM734.302 14.2V15.2H735.302V14.2H734.302ZM714.902 14.2V13.2H713.902V14.2H714.902ZM714.902 72H699.802V74H714.902V72ZM700.802 73V14.2H698.802V73H700.802ZM699.802 13.2H680.402V15.2H699.802V13.2ZM681.402 14.2V1.6H679.402V14.2H681.402ZM680.402 2.6H734.302V0.599995H680.402V2.6ZM733.302 1.6V14.2H735.302V1.6H733.302ZM734.302 13.2H714.902V15.2H734.302V13.2ZM713.902 14.2V73H715.902V14.2H713.902ZM747.591 67.0778L746.884 67.7849L746.893 67.7944L746.903 67.8037L747.591 67.0778ZM756.497 58.2622L755.762 58.9405L755.771 58.95L756.497 58.2622ZM757.124 62.557C757.124 64.4541 756.654 65.6929 755.889 66.4637C755.125 67.2331 753.9 67.7052 752.021 67.7052V69.7052C754.212 69.7052 756.038 69.1527 757.308 67.8727C758.578 66.594 759.124 64.7587 759.124 62.557H757.124ZM752.021 67.7052C750.429 67.7052 749.211 67.2349 748.279 66.3518L746.903 67.8037C748.262 69.0906 749.997 69.7052 752.021 69.7052V67.7052ZM748.298 66.3707C747.398 65.4709 746.918 64.2779 746.918 62.6926H744.918C744.918 64.7239 745.553 66.4543 746.884 67.7849L748.298 66.3707ZM746.918 62.6926C746.918 60.7897 747.406 59.5444 748.209 58.7647C749.017 57.9797 750.315 57.4991 752.293 57.4991V55.4991C750.021 55.4991 748.132 56.0507 746.815 57.3303C745.493 58.615 744.918 60.4665 744.918 62.6926H746.918ZM752.293 57.4991C753.755 57.4991 754.882 57.9866 755.762 58.9405L757.232 57.5839C755.942 56.187 754.266 55.4991 752.293 55.4991V57.4991ZM755.771 58.95C756.664 59.8922 757.124 61.0701 757.124 62.557H759.124C759.124 60.6081 758.5 58.9228 757.223 57.5745L755.771 58.95ZM787.217 71.404L786.752 72.289L786.764 72.2953L787.217 71.404ZM779.909 63.676L780.81 63.2404L780.81 63.2404L779.909 63.676ZM780.245 36.628L779.365 36.1531L779.365 36.1531L780.245 36.628ZM788.141 28.816L787.7 27.9186L787.694 27.9216L788.141 28.816ZM808.049 27.22L807.79 28.1859L807.796 28.1874L808.049 27.22ZM814.181 29.404L815.115 29.7613L815.443 28.9038L814.617 28.5038L814.181 29.404ZM810.485 39.064L810.114 39.9925L811.057 40.3695L811.419 39.4213L810.485 39.064ZM804.941 37.132L804.654 38.0899L804.663 38.0923L804.941 37.132ZM794.441 37.972L795.011 38.7942L795.021 38.7869L795.031 38.7794L794.441 37.972ZM791.165 42.592L790.222 42.2605L790.219 42.2681L790.217 42.2758L791.165 42.592ZM791.249 57.796L790.309 58.1356L790.315 58.1516L790.321 58.1674L791.249 57.796ZM794.609 62.248L794.04 63.0702L794.051 63.0777L794.062 63.085L794.609 62.248ZM806.873 62.668L807.19 63.6167L807.201 63.6128L807.213 63.6086L806.873 62.668ZM812.753 59.728H813.753V57.8899L812.21 58.8884L812.753 59.728ZM812.753 70.396L813.297 71.2356L813.753 70.94V70.396H812.753ZM806.705 73L806.475 72.0269L806.46 72.0305L806.444 72.0346L806.705 73ZM798.809 72.84C794.39 72.84 790.69 72.0488 787.671 70.5127L786.764 72.2953C790.129 74.0072 794.157 74.84 798.809 74.84V72.84ZM787.683 70.5191C784.694 68.9457 782.403 66.5342 780.81 63.2404L779.009 64.1116C780.775 67.7618 783.357 70.5023 786.752 72.2889L787.683 70.5191ZM780.81 63.2404C779.216 59.948 778.389 55.6588 778.389 50.32H776.389C776.389 55.8452 777.242 60.46 779.009 64.1116L780.81 63.2404ZM778.389 50.32C778.389 44.8236 779.325 40.4386 781.125 37.1029L779.365 36.1531C777.358 39.8734 776.389 44.6164 776.389 50.32H778.389ZM781.125 37.1029C782.939 33.7431 785.425 31.2921 788.589 29.7104L787.694 27.9216C784.138 29.6999 781.36 32.4569 779.365 36.1531L781.125 37.1029ZM788.583 29.7133C791.841 28.111 795.606 27.296 799.901 27.296V25.296C795.349 25.296 791.274 26.161 787.7 27.9186L788.583 29.7133ZM799.901 27.296C802.976 27.296 805.601 27.5984 807.79 28.1858L808.309 26.2542C805.906 25.6096 803.099 25.296 799.901 25.296V27.296ZM807.796 28.1874C810.101 28.791 812.081 29.4986 813.746 30.3042L814.617 28.5038C812.81 27.6294 810.702 26.881 808.303 26.2526L807.796 28.1874ZM813.247 29.0466L809.551 38.7067L811.419 39.4213L815.115 29.7613L813.247 29.0466ZM810.857 38.1355C808.871 37.3413 806.992 36.6861 805.22 36.1717L804.663 38.0923C806.363 38.5859 808.179 39.2187 810.114 39.9925L810.857 38.1355ZM805.229 36.1742C803.46 35.6434 801.683 35.376 799.901 35.376V37.376C801.48 37.376 803.063 37.6126 804.654 38.0898L805.229 36.1742ZM799.901 35.376C797.551 35.376 795.512 35.9509 793.851 37.1646L795.031 38.7794C796.283 37.8651 797.884 37.376 799.901 37.376V35.376ZM793.872 37.1498C792.205 38.3041 791.003 40.038 790.222 42.2605L792.109 42.9235C792.784 41.002 793.766 39.6559 795.011 38.7942L793.872 37.1498ZM790.217 42.2758C789.499 44.4284 789.157 47.0924 789.157 50.236H791.157C791.157 47.2196 791.488 44.7876 792.114 42.9082L790.217 42.2758ZM789.157 50.236C789.157 53.332 789.529 55.976 790.309 58.1356L792.19 57.4564C791.514 55.584 791.157 53.188 791.157 50.236H789.157ZM790.321 58.1674C791.164 60.2741 792.394 61.9305 794.04 63.0702L795.179 61.4258C793.913 60.5495 792.903 59.2379 792.178 57.4246L790.321 58.1674ZM794.062 63.085C795.71 64.1623 797.673 64.676 799.901 64.676V62.676C797.986 62.676 796.421 62.2377 795.157 61.411L794.062 63.085ZM799.901 64.676C802.616 64.676 805.051 64.3297 807.19 63.6167L806.557 61.7193C804.664 62.3503 802.45 62.676 799.901 62.676V64.676ZM807.213 63.6086C809.305 62.8533 811.333 61.8385 813.297 60.5676L812.21 58.8884C810.366 60.0815 808.474 61.0267 806.534 61.7274L807.213 63.6086ZM811.753 59.728V70.396H813.753V59.728H811.753ZM812.21 69.5564C810.398 70.7287 808.488 71.5502 806.475 72.0269L806.936 73.9731C809.179 73.4418 811.3 72.5273 813.297 71.2356L812.21 69.5564ZM806.444 72.0346C804.488 72.5634 801.952 72.84 798.809 72.84V74.84C802.051 74.84 804.779 74.5566 806.966 73.9654L806.444 72.0346ZM866.738 60.148L865.796 59.8105L865.794 59.8185L865.791 59.8264L866.738 60.148ZM862.286 67.708L861.559 67.0208L861.559 67.0214L862.286 67.708ZM855.314 72.328L855.659 73.2667L855.667 73.2636L855.675 73.2604L855.314 72.328ZM837.086 72.328L836.718 73.2578L836.729 73.2624L836.741 73.2667L837.086 72.328ZM830.114 67.708L829.387 68.3953L829.397 68.4051L830.114 67.708ZM825.494 60.148L824.552 60.4855L824.555 60.4933L824.558 60.5011L825.494 60.148ZM826.586 37.132L827.474 37.5907L827.477 37.5849L826.586 37.132ZM834.314 29.068L834.796 29.9442L834.796 29.9442L834.314 29.068ZM857.666 29.068L857.178 29.9408L857.178 29.9408L857.666 29.068ZM865.478 37.132L864.598 37.6069L864.601 37.6128L865.478 37.132ZM837.59 57.628L836.631 57.913L836.636 57.9287L836.641 57.9442L837.59 57.628ZM840.698 62.248L840.093 63.0442L840.103 63.052L840.113 63.0595L840.698 62.248ZM851.534 62.248L852.134 63.048L852.139 63.0442L851.534 62.248ZM854.558 57.628L853.607 57.3195L853.604 57.3276L853.601 57.3358L854.558 57.628ZM854.558 42.424L853.601 42.7162L853.605 42.7283L853.609 42.7402L854.558 42.424ZM838.85 39.82L838.015 39.27L838.011 39.275L838.85 39.82ZM867.334 49.984C867.334 53.7002 866.815 56.9707 865.796 59.8105L867.679 60.4855C868.789 57.3893 869.334 53.8838 869.334 49.984H867.334ZM865.791 59.8264C864.825 62.6717 863.411 65.0634 861.559 67.0208L863.012 68.3952C865.081 66.2086 866.635 63.5603 867.685 60.4696L865.791 59.8264ZM861.559 67.0214C859.763 68.9227 857.566 70.382 854.952 71.3956L855.675 73.2604C858.549 72.146 861.001 70.5253 863.013 68.3946L861.559 67.0214ZM854.969 71.3893C852.354 72.3499 849.366 72.84 845.99 72.84V74.84C849.558 74.84 852.786 74.3221 855.659 73.2667L854.969 71.3893ZM845.99 72.84C842.905 72.84 840.054 72.3532 837.431 71.3893L836.741 73.2667C839.605 74.3188 842.691 74.84 845.99 74.84V72.84ZM837.454 71.3982C834.894 70.3847 832.689 68.9227 830.831 67.0109L829.397 68.4051C831.458 70.5253 833.902 72.1433 836.718 73.2578L837.454 71.3982ZM830.84 67.0208C828.981 65.0555 827.508 62.6527 826.429 59.7949L824.558 60.5011C825.72 63.5793 827.326 66.2165 829.387 68.3952L830.84 67.0208ZM826.435 59.8105C825.417 56.9707 824.898 53.7002 824.898 49.984H822.898C822.898 53.8838 823.443 57.3893 824.552 60.4855L826.435 59.8105ZM824.898 49.984C824.898 45.0007 825.774 40.8843 827.474 37.5906L825.697 36.6734C823.813 40.3237 822.898 44.7753 822.898 49.984H824.898ZM827.477 37.5849C829.182 34.2298 831.618 31.6922 834.796 29.9442L833.832 28.1918C830.29 30.1398 827.574 32.9782 825.694 36.6791L827.477 37.5849ZM834.796 29.9442C837.981 28.192 841.785 27.296 846.242 27.296V25.296C841.514 25.296 837.366 26.248 833.832 28.1918L834.796 29.9442ZM846.242 27.296C850.407 27.296 854.043 28.1872 857.178 29.9408L858.154 28.1952C854.681 26.2528 850.701 25.296 846.242 25.296V27.296ZM857.178 29.9408C860.306 31.6905 862.778 34.2357 864.598 37.6069L866.358 36.6571C864.369 32.9723 861.634 30.1415 858.154 28.1952L857.178 29.9408ZM864.601 37.6128C866.404 40.9011 867.334 45.0091 867.334 49.984H869.334C869.334 44.7669 868.359 40.3069 866.355 36.6512L864.601 37.6128ZM835.666 49.984C835.666 53.0692 835.979 55.7198 836.631 57.913L838.548 57.343C837.968 55.3922 837.666 52.9468 837.666 49.984H835.666ZM836.641 57.9442C837.363 60.1107 838.502 61.8349 840.093 63.0442L841.303 61.4518C840.094 60.5331 839.16 59.1773 838.538 57.3118L836.641 57.9442ZM840.113 63.0595C841.728 64.2221 843.771 64.76 846.158 64.76V62.76C844.065 62.76 842.467 62.2899 841.282 61.4365L840.113 63.0595ZM846.158 64.76C848.543 64.76 850.567 64.2231 852.134 63.048L850.934 61.448C849.813 62.2889 848.253 62.76 846.158 62.76V64.76ZM852.139 63.0442C853.737 61.8296 854.849 60.096 855.514 57.9202L853.601 57.3358C853.034 59.192 852.131 60.5384 850.929 61.4518L852.139 63.0442ZM855.509 57.9365C856.223 55.7345 856.566 53.0752 856.566 49.984H854.566C854.566 52.9407 854.236 55.3775 853.607 57.3195L855.509 57.9365ZM856.566 49.984C856.566 46.8941 856.224 44.2589 855.506 42.1078L853.609 42.7402C854.236 44.6211 854.566 47.0259 854.566 49.984H856.566ZM855.514 42.1318C854.849 39.9542 853.732 38.2385 852.118 37.0765L850.949 38.6995C852.136 39.5535 853.035 40.8618 853.601 42.7162L855.514 42.1318ZM852.118 37.0765C850.503 35.9139 848.461 35.376 846.074 35.376V37.376C848.167 37.376 849.764 37.8461 850.949 38.6995L852.118 37.0765ZM846.074 35.376C842.512 35.376 839.751 36.6336 838.015 39.27L839.685 40.37C840.973 38.4144 843.028 37.376 846.074 37.376V35.376ZM838.011 39.275C836.399 41.7549 835.666 45.3746 835.666 49.984H837.666C837.666 45.5214 838.388 42.3651 839.688 40.365L838.011 39.275ZM947.642 30.328L946.927 31.0276L946.934 31.0351L946.942 31.0425L947.642 30.328ZM951.674 73V74H952.674V73H951.674ZM939.158 73H938.158V74H939.158V73ZM937.478 38.812L936.646 39.3667L936.65 39.3733L936.654 39.3797L937.478 38.812ZM925.214 39.82L924.354 39.3085L924.354 39.3085L925.214 39.82ZM923.114 73V74H924.114V73H923.114ZM910.598 73H909.598V74H910.598V73ZM909.842 40.744L908.897 41.0711L908.897 41.0711L909.842 40.744ZM907.574 37.468L906.96 38.2574L906.974 38.2683L906.988 38.2787L907.574 37.468ZM898.25 38.056L898.908 38.8086L898.908 38.8086L898.25 38.056ZM895.394 43.18L896.364 43.4225L896.364 43.4225L895.394 43.18ZM894.554 73V74H895.554V73H894.554ZM882.038 73H881.038V74H882.038V73ZM882.038 27.136V26.136H881.038V27.136H882.038ZM891.614 27.136L892.575 26.8613L892.368 26.136H891.614V27.136ZM893.294 33.016L892.332 33.2907L892.539 34.016H893.294V33.016ZM893.966 33.016V34.016H894.528L894.82 33.535L893.966 33.016ZM897.494 29.236L898.056 30.0629L898.067 30.0554L898.078 30.0475L897.494 29.236ZM902.114 27.052L902.371 28.0182L902.382 28.0154L902.392 28.0123L902.114 27.052ZM915.89 27.976L915.46 28.8789L915.469 28.8831L915.477 28.8871L915.89 27.976ZM921.266 33.016L920.384 33.4888L920.667 34.016H921.266V33.016ZM922.358 33.016V34.016H922.926L923.217 33.5275L922.358 33.016ZM928.154 27.892L927.765 26.9707L927.757 26.9739L928.154 27.892ZM935.882 27.296C940.926 27.296 944.546 28.596 946.927 31.0276L948.356 29.6284C945.473 26.684 941.253 25.296 935.882 25.296V27.296ZM946.942 31.0425C949.353 33.4036 950.674 37.3373 950.674 43.096H952.674C952.674 37.0947 951.306 32.5164 948.341 29.6135L946.942 31.0425ZM950.674 43.096V73H952.674V43.096H950.674ZM951.674 72H939.158V74H951.674V72ZM940.158 73V46.204H938.158V73H940.158ZM940.158 46.204C940.158 42.8204 939.59 40.1139 938.301 38.2443L936.654 39.3797C937.605 40.7581 938.158 42.9796 938.158 46.204H940.158ZM938.31 38.2573C936.971 36.2498 934.892 35.292 932.27 35.292V37.292C934.351 37.292 935.744 38.0142 936.646 39.3667L938.31 38.2573ZM932.27 35.292C928.699 35.292 925.974 36.5867 924.354 39.3085L926.073 40.3315C927.253 38.3493 929.233 37.292 932.27 37.292V35.292ZM924.354 39.3085C922.822 41.883 922.114 45.4799 922.114 49.984H924.114C924.114 45.6401 924.805 42.461 926.073 40.3315L924.354 39.3085ZM922.114 49.984V73H924.114V49.984H922.114ZM923.114 72H910.598V74H923.114V72ZM911.598 73V46.204H909.598V73H911.598ZM911.598 46.204C911.598 43.9513 911.339 42.012 910.787 40.4169L908.897 41.0711C909.352 42.388 909.598 44.0887 909.598 46.204H911.598ZM910.787 40.4169C910.232 38.8135 909.37 37.5319 908.159 36.6573L906.988 38.2787C907.793 38.8601 908.444 39.7625 908.897 41.0711L910.787 40.4169ZM908.188 36.6786C906.967 35.7293 905.448 35.292 903.71 35.292V37.292C905.107 37.292 906.164 37.6387 906.96 38.2574L908.188 36.6786ZM903.71 35.292C901.242 35.292 899.165 35.9267 897.591 37.3034L898.908 38.8086C900.023 37.8333 901.585 37.292 903.71 37.292V35.292ZM897.591 37.3034C896.054 38.6481 895.018 40.5573 894.423 42.9375L896.364 43.4225C896.889 41.3227 897.757 39.8159 898.908 38.8086L897.591 37.3034ZM894.423 42.9375C893.837 45.2816 893.554 48.1125 893.554 51.412H895.554C895.554 48.2155 895.83 45.5584 896.364 43.4225L894.423 42.9375ZM893.554 51.412V73H895.554V51.412H893.554ZM894.554 72H882.038V74H894.554V72ZM883.038 73V27.136H881.038V73H883.038ZM882.038 28.136H891.614V26.136H882.038V28.136ZM890.652 27.4107L892.332 33.2907L894.255 32.7413L892.575 26.8613L890.652 27.4107ZM893.294 34.016H893.966V32.016H893.294V34.016ZM894.82 33.535C895.704 32.079 896.784 30.9279 898.056 30.0629L896.931 28.4091C895.403 29.4481 894.131 30.817 893.111 32.497L894.82 33.535ZM898.078 30.0475C899.379 29.1111 900.808 28.4352 902.371 28.0182L901.856 26.0858C900.06 26.5648 898.409 27.3449 896.909 28.4245L898.078 30.0475ZM902.392 28.0123C904.042 27.5336 905.684 27.296 907.322 27.296V25.296C905.487 25.296 903.658 25.5624 901.835 26.0916L902.392 28.0123ZM907.322 27.296C910.574 27.296 913.275 27.8385 915.46 28.8789L916.32 27.0731C913.8 25.8734 910.789 25.296 907.322 25.296V27.296ZM915.477 28.8871C917.627 29.8596 919.255 31.3845 920.384 33.4888L922.147 32.5432C920.812 30.0555 918.856 28.2204 916.302 27.0649L915.477 28.8871ZM921.266 34.016H922.358V32.016H921.266V34.016ZM923.217 33.5275C924.512 31.3525 926.283 29.7889 928.55 28.8101L927.757 26.9739C925.096 28.1231 923.004 29.9755 921.498 32.5045L923.217 33.5275ZM928.543 28.8132C930.944 27.7991 933.388 27.296 935.882 27.296V25.296C933.111 25.296 930.403 25.8569 927.765 26.9708L928.543 28.8132Z" fill="black" fill-opacity="0.4"/>
</g>
<defs>
<filter id="filter0_d_11_2" x="0.799988" y="0.5" width="954.874" height="81.5" filterUnits="userSpaceOnUse" color-interpolation-filters="sRGB">
<feFlood flood-opacity="0" result="BackgroundImageFix"/>
<feColorMatrix in="SourceAlpha" type="matrix" values="0 0 0 0 0 0 0 0 0 0 0 0 0 0 0 0 0 0 127 0" result="hardAlpha"/>
<feOffset dy="4"/>
<feGaussianBlur stdDeviation="2"/>
<feComposite in2="hardAlpha" operator="out"/>
<feColorMatrix type="matrix" values="0 0 0 0 0 0 0 0 0 0 0 0 0 0 0 0 0 0 0.1 0"/>
<feBlend mode="normal" in2="BackgroundImageFix" result="effect1_dropShadow_11_2"/>
<feBlend mode="normal" in="SourceGraphic" in2="effect1_dropShadow_11_2" result="shape"/>
</filter>
</defs>
</svg>
